<?xml version="1.0" standalone="no"?>
<!DOCTYPE svg PUBLIC "-//W3C//DTD SVG 20010904//EN"
 "http://www.w3.org/TR/2001/REC-SVG-20010904/DTD/svg10.dtd">
<svg version="1.0" xmlns="http://www.w3.org/2000/svg"
 width="20" height="20" viewBox="0 0 512.000000 512.000000"
 preserveAspectRatio="xMidYMid meet">

<g transform="translate(0.000000,512.000000) scale(0.100000,-0.100000)"
fill="#3D3B3A" stroke="none">
<path stroke-width="300px" stroke="#ffff" d="M2354 4535 c-38 -19 -254 -230 -955 -932 -616 -617 -912 -920 -923
-947 -23 -50 -23 -142 0 -192 11 -27 307 -330 923 -947 701 -702 917 -913 955
-932 61 -31 142 -33 201 -6 22 10 78 58 126 107 67 70 88 99 98 137 16 54 9
121 -15 170 -9 17 -334 352 -723 742 -754 756 -731 730 -731 825 0 95 -23 69
731 825 389 391 714 725 723 742 24 49 31 116 15 170 -10 38 -31 67 -98 137
-48 49 -104 97 -126 107 -59 27 -140 25 -201 -6z"/>
<path stroke-width="300px" stroke="#ffff" d="M4240 4544 c-46 -19 -1853 -1823 -1883 -1879 -30 -55 -30 -155 0
-210 32 -60 1838 -1860 1885 -1880 53 -22 139 -19 192 6 54 25 191 164 212
215 20 49 20 144 -1 186 -10 18 -331 348 -716 733 -535 537 -703 710 -718 745
-27 59 -27 141 0 200 15 35 183 208 718 745 385 385 706 715 716 733 21 42 21
137 1 186 -21 51 -158 190 -212 215 -52 25 -143 27 -194 5z"/>
</g>
</svg>
