<?xml version="1.0" standalone="no"?>
<!DOCTYPE svg PUBLIC "-//W3C//DTD SVG 20010904//EN"
 "http://www.w3.org/TR/2001/REC-SVG-20010904/DTD/svg10.dtd">
<svg version="1.0" xmlns="http://www.w3.org/2000/svg"
 width="50" height="50" viewBox="0 0 512.000000 512.000000"
 preserveAspectRatio="xMidYMid meet">

<g transform="translate(0.000000,512.000000) scale(0.100000,-0.100000)"
fill="#3D3B3A" stroke="none">
<path d="M2495 4466 c-16 -8 -438 -423 -937 -923 -985 -987 -931 -926 -913
-1020 9 -49 69 -109 118 -118 94 -18 39 -66 955 848 l842 842 843 -842 c915
-914 860 -866 954 -848 49 9 109 69 118 118 18 94 72 33 -913 1021 -529 529
-920 914 -939 922 -40 17 -89 17 -128 0z"/>
<path d="M2495 2706 c-16 -8 -438 -423 -937 -923 -985 -987 -931 -926 -913
-1020 9 -49 69 -109 118 -118 94 -18 39 -66 955 848 l842 842 843 -842 c915
-914 860 -866 954 -848 49 9 109 69 118 118 18 94 72 33 -913 1021 -529 529
-920 914 -939 922 -40 17 -89 17 -128 0z"/>
</g>
</svg>
