<?xml version="1.0" standalone="no"?>
<!DOCTYPE svg PUBLIC "-//W3C//DTD SVG 20010904//EN"
 "http://www.w3.org/TR/2001/REC-SVG-20010904/DTD/svg10.dtd">
<svg version="1.0" xmlns="http://www.w3.org/2000/svg"
 width="50" height="50" viewBox="0 0 512.000000 512.000000"
 preserveAspectRatio="xMidYMid meet">

<g transform="translate(0.000000,512.000000) scale(0.100000,-0.100000)"
fill="#3D3B3A" stroke="none">
<path d="M1874 4621 c-18 -4 -63 -25 -100 -46 -239 -130 -428 -321 -548 -553
-114 -222 -157 -405 -157 -672 0 -296 64 -563 210 -865 79 -164 584 -1038 678
-1173 336 -484 802 -783 1266 -810 288 -17 539 38 770 170 162 93 193 143 184
302 -8 147 -68 287 -229 540 -199 313 -334 424 -523 434 -110 6 -161 -11 -325
-105 -131 -75 -137 -78 -200 -78 -81 0 -157 35 -223 104 -30 31 -126 188 -292
474 -136 236 -254 445 -261 465 -7 20 -13 73 -14 118 0 66 4 89 25 130 27 53
50 72 220 169 119 69 176 125 219 214 29 62 31 72 30 181 0 103 -4 125 -33
210 -36 106 -166 362 -247 487 -142 219 -318 338 -450 304z m112 -239 c49 -36
107 -104 168 -200 70 -107 189 -346 216 -432 28 -91 31 -191 7 -237 -20 -38
-38 -51 -192 -139 -142 -81 -191 -124 -233 -202 -77 -144 -82 -330 -13 -477
31 -66 486 -855 532 -922 62 -90 207 -187 319 -212 68 -16 183 -13 237 5 26 9
107 50 178 92 153 88 202 99 275 62 56 -29 138 -106 199 -189 75 -102 205
-321 241 -406 34 -82 57 -183 47 -207 -10 -26 -168 -111 -269 -145 -376 -126
-750 -63 -1101 184 -154 108 -364 329 -484 508 -60 89 -574 978 -626 1081 -83
167 -150 366 -184 547 -24 132 -24 403 0 517 53 246 141 406 321 585 82 82
134 124 201 162 50 29 97 53 106 53 9 0 34 -13 55 -28z"/>
</g>
</svg>
