<?xml version="1.0" standalone="no"?>
<!DOCTYPE svg PUBLIC "-//W3C//DTD SVG 20010904//EN"
 "http://www.w3.org/TR/2001/REC-SVG-20010904/DTD/svg10.dtd">
<svg version="1.0" xmlns="http://www.w3.org/2000/svg"
 width="50" height="50" viewBox="0 0 512.000000 512.000000"
 preserveAspectRatio="xMidYMid meet">

<g transform="translate(0.000000,512.000000) scale(0.100000,-0.100000)"
fill="#3D3B3A" stroke="none">
<path d="M620 4399 c-267 -28 -497 -218 -588 -484 l-27 -80 0 -1085 0 -1085
28 -80 c84 -240 262 -404 501 -465 76 -19 111 -20 860 -20 l781 0 192 -192
193 -193 193 193 192 192 781 0 c748 0 784 1 859 20 106 27 177 61 261 125
112 86 190 196 241 340 l28 80 0 1085 0 1085 -27 80 c-93 274 -319 455 -602
485 -111 12 -3756 11 -3866 -1z m3853 -299 c156 -23 282 -130 327 -279 20 -65
20 -87 18 -1091 l-3 -1025 -31 -66 c-37 -78 -87 -136 -152 -177 -100 -64 -73
-62 -981 -62 l-826 0 -132 -132 -133 -133 -133 133 -132 132 -827 0 c-796 0
-828 1 -889 20 -109 34 -209 127 -254 237 -19 47 -20 78 -23 1073 -2 1006 -2
1026 18 1092 20 65 66 137 118 185 44 39 139 83 200 92 83 12 3751 13 3835 1z"/>
<path d="M4135 3578 c-3 -7 -4 -258 -3 -558 l3 -545 148 -3 147 -3 0 561 0
560 -145 0 c-107 0 -147 -3 -150 -12z"/>
<path d="M690 3424 c-63 -42 -117 -78 -119 -80 -2 -2 89 -144 201 -316 l205
-313 -5 -333 -5 -332 152 0 151 0 1 253 c0 138 4 293 8 342 l7 90 163 250 c90
138 179 274 198 302 l34 53 -122 80 c-66 44 -124 80 -127 80 -4 0 -69 -96
-144 -213 -75 -116 -143 -220 -151 -231 -12 -16 -27 3 -163 213 -82 126 -154
230 -159 231 -6 0 -62 -34 -125 -76z"/>
<path d="M3251 3434 c-196 -52 -327 -235 -307 -427 12 -120 82 -223 197 -290
25 -15 109 -49 188 -77 164 -58 187 -68 224 -105 39 -40 37 -85 -7 -128 -82
-83 -259 -72 -379 24 l-38 31 -76 -69 c-41 -37 -91 -81 -109 -96 -19 -16 -34
-32 -34 -37 0 -17 131 -111 201 -144 290 -137 621 -46 737 201 24 51 27 70 27
158 0 88 -3 107 -27 158 -36 76 -124 163 -213 209 -38 20 -122 53 -185 73
-136 45 -169 60 -192 89 -22 26 -22 49 -3 85 37 72 170 81 284 21 36 -20 65
-29 70 -24 51 55 181 209 181 214 0 11 -86 65 -150 94 -122 56 -273 71 -389
40z"/>
<path d="M1920 2745 l0 -695 378 2 377 3 3 148 3 147 -231 0 -230 0 0 125 0
125 210 0 210 0 0 150 0 150 -210 0 -210 0 0 120 0 120 228 2 227 3 3 148 3
147 -381 0 -380 0 0 -695z"/>
<path d="M4137 2213 c-4 -3 -7 -71 -7 -150 l0 -143 150 0 150 0 0 150 0 150
-143 0 c-79 0 -147 -3 -150 -7z"/>
</g>
</svg>
