<svg xmlns="http://www.w3.org/2000/svg" xmlns:xlink="http://www.w3.org/1999/xlink" width="500" zoomAndPan="magnify" viewBox="0 0 375 374.999991" height="500" preserveAspectRatio="xMidYMid meet" version="1.0"><defs><g/><clipPath id="db557a8963"><path d="M 76.777344 73 L 298.027344 73 L 298.027344 302 L 76.777344 302 Z M 76.777344 73 " clip-rule="nonzero"/></clipPath></defs><rect x="-37.5" width="450" fill="#ffffff" y="-37.499999" height="449.999989" fill-opacity="1"/><rect x="-37.5" width="450" fill="#ffffff" y="-37.499999" height="449.999989" fill-opacity="1"/><g clip-path="url(#db557a8963)"><path fill="#3d3b3a" d="M 159.660156 76.703125 C 161.453125 76.253906 163.257812 75.847656 165.070312 75.484375 C 166.882812 75.121094 168.703125 74.804688 170.535156 74.53125 C 172.363281 74.257812 174.199219 74.027344 176.039062 73.84375 C 177.878906 73.65625 179.722656 73.519531 181.566406 73.421875 C 183.414062 73.328125 185.261719 73.277344 187.113281 73.273438 C 188.960938 73.265625 190.808594 73.304688 192.65625 73.390625 C 194.503906 73.476562 196.347656 73.605469 198.191406 73.777344 C 200.03125 73.953125 201.867188 74.171875 203.699219 74.433594 C 205.527344 74.699219 207.351562 75.007812 209.167969 75.359375 C 210.980469 75.710938 212.789062 76.105469 214.585938 76.546875 C 216.378906 76.984375 218.164062 77.46875 219.9375 77.996094 C 221.710938 78.519531 223.46875 79.089844 225.214844 79.703125 C 226.960938 80.3125 228.6875 80.96875 230.402344 81.664062 C 232.117188 82.359375 233.8125 83.097656 235.488281 83.875 C 237.167969 84.652344 238.824219 85.472656 240.460938 86.328125 C 242.101562 87.1875 243.714844 88.085938 245.308594 89.023438 C 246.90625 89.960938 248.476562 90.9375 250.023438 91.949219 C 251.570312 92.964844 253.089844 94.015625 254.585938 95.101562 C 256.082031 96.191406 257.550781 97.3125 258.992188 98.472656 C 260.433594 99.628906 261.84375 100.824219 263.226562 102.050781 C 264.609375 103.277344 265.964844 104.539062 267.285156 105.832031 C 268.605469 107.125 269.898438 108.449219 271.152344 109.804688 C 272.410156 111.164062 273.636719 112.546875 274.824219 113.964844 C 276.015625 115.378906 277.171875 116.820312 278.292969 118.292969 C 279.410156 119.765625 280.496094 121.261719 281.542969 122.789062 C 282.589844 124.3125 283.597656 125.859375 284.570312 127.433594 C 285.542969 129.007812 286.476562 130.601562 287.371094 132.222656 C 288.265625 133.839844 289.121094 135.480469 289.9375 137.140625 C 290.75 138.800781 291.523438 140.476562 292.257812 142.175781 C 292.992188 143.875 293.683594 145.589844 294.332031 147.320312 C 294.984375 149.050781 295.589844 150.796875 296.15625 152.558594 C 296.722656 154.320312 297.242188 156.09375 297.722656 157.878906 C 297.898438 158.539062 298.074219 159.210938 298.242188 159.894531 L 296.496094 160.503906 C 296.316406 159.785156 296.136719 159.070312 295.941406 158.351562 C 295.46875 156.582031 294.949219 154.824219 294.390625 153.078125 C 293.832031 151.335938 293.226562 149.605469 292.582031 147.886719 C 291.9375 146.171875 291.25 144.472656 290.523438 142.792969 C 289.792969 141.109375 289.023438 139.445312 288.214844 137.800781 C 287.40625 136.15625 286.554688 134.535156 285.667969 132.929688 C 284.777344 131.328125 283.851562 129.75 282.882812 128.191406 C 281.917969 126.632812 280.914062 125.101562 279.871094 123.59375 C 278.828125 122.085938 277.75 120.601562 276.636719 119.148438 C 275.523438 117.691406 274.375 116.265625 273.191406 114.867188 C 272.007812 113.464844 270.789062 112.097656 269.539062 110.757812 C 268.285156 109.417969 267.003906 108.109375 265.6875 106.832031 C 264.371094 105.554688 263.027344 104.3125 261.652344 103.101562 C 260.273438 101.890625 258.871094 100.714844 257.4375 99.574219 C 256.003906 98.429688 254.542969 97.324219 253.054688 96.253906 C 251.566406 95.183594 250.054688 94.148438 248.515625 93.152344 C 246.976562 92.15625 245.414062 91.199219 243.828125 90.277344 C 242.242188 89.359375 240.636719 88.480469 239.007812 87.636719 C 237.378906 86.796875 235.730469 85.996094 234.0625 85.234375 C 232.398438 84.472656 230.710938 83.753906 229.007812 83.078125 C 227.304688 82.398438 225.585938 81.761719 223.851562 81.167969 C 222.117188 80.574219 220.371094 80.023438 218.609375 79.515625 C 216.847656 79.007812 215.078125 78.542969 213.292969 78.121094 C 211.507812 77.699219 209.714844 77.320312 207.914062 76.988281 C 206.113281 76.652344 204.300781 76.363281 202.484375 76.121094 C 200.667969 75.875 198.847656 75.675781 197.023438 75.519531 C 195.195312 75.363281 193.367188 75.25 191.535156 75.183594 C 189.703125 75.117188 187.871094 75.097656 186.039062 75.121094 C 184.207031 75.144531 182.375 75.210938 180.546875 75.324219 C 178.714844 75.4375 176.890625 75.59375 175.070312 75.796875 C 173.246094 76 171.429688 76.246094 169.621094 76.539062 C 167.8125 76.828125 166.011719 77.164062 164.21875 77.542969 C 162.425781 77.921875 160.640625 78.347656 158.867188 78.8125 C 159.144531 78.117188 159.414062 77.417969 159.660156 76.707031 Z M 78.523438 214.730469 C 78.671875 215.320312 78.820312 215.902344 78.976562 216.488281 C 79.453125 218.265625 79.972656 220.027344 80.535156 221.777344 C 81.097656 223.527344 81.703125 225.261719 82.347656 226.980469 C 82.996094 228.699219 83.683594 230.402344 84.414062 232.089844 C 85.148438 233.773438 85.917969 235.441406 86.730469 237.089844 C 87.542969 238.738281 88.394531 240.363281 89.289062 241.972656 C 90.179688 243.578125 91.113281 245.160156 92.082031 246.722656 C 93.054688 248.28125 94.0625 249.816406 95.105469 251.328125 C 96.152344 252.839844 97.234375 254.324219 98.351562 255.78125 C 99.472656 257.238281 100.625 258.667969 101.8125 260.070312 C 103.003906 261.472656 104.222656 262.84375 105.480469 264.183594 C 106.734375 265.527344 108.023438 266.835938 109.34375 268.113281 C 110.664062 269.390625 112.015625 270.636719 113.398438 271.847656 C 114.777344 273.058594 116.1875 274.238281 117.628906 275.378906 C 119.066406 276.523438 120.53125 277.628906 122.027344 278.699219 C 123.519531 279.769531 125.039062 280.804688 126.582031 281.800781 C 128.125 282.796875 129.695312 283.753906 131.285156 284.671875 C 132.875 285.59375 134.488281 286.472656 136.125 287.3125 C 137.757812 288.152344 139.410156 288.949219 141.085938 289.710938 C 142.757812 290.46875 144.449219 291.1875 146.160156 291.863281 C 147.867188 292.539062 149.589844 293.171875 151.332031 293.761719 C 153.070312 294.351562 154.824219 294.902344 156.589844 295.40625 C 158.359375 295.910156 160.136719 296.375 161.925781 296.792969 C 163.714844 297.207031 165.511719 297.582031 167.320312 297.914062 C 169.128906 298.242188 170.945312 298.527344 172.765625 298.765625 C 174.585938 299.007812 176.414062 299.203125 178.246094 299.355469 C 180.078125 299.503906 181.910156 299.609375 183.746094 299.671875 C 185.582031 299.734375 187.421875 299.75 189.257812 299.71875 C 191.09375 299.691406 192.929688 299.617188 194.765625 299.496094 C 196.597656 299.375 198.425781 299.210938 200.253906 299.003906 C 202.078125 298.792969 203.898438 298.539062 205.710938 298.242188 C 207.523438 297.941406 209.328125 297.601562 211.125 297.214844 C 212.921875 296.828125 214.707031 296.394531 216.480469 295.921875 C 216.195312 296.617188 215.917969 297.320312 215.660156 298.03125 C 213.863281 298.488281 212.058594 298.902344 210.242188 299.273438 C 208.425781 299.640625 206.601562 299.964844 204.769531 300.246094 C 202.9375 300.527344 201.101562 300.765625 199.257812 300.953125 C 197.414062 301.144531 195.566406 301.292969 193.714844 301.394531 C 191.863281 301.496094 190.011719 301.550781 188.15625 301.5625 C 186.304688 301.574219 184.453125 301.539062 182.597656 301.460938 C 180.746094 301.378906 178.898438 301.257812 177.054688 301.085938 C 175.207031 300.917969 173.367188 300.703125 171.53125 300.445312 C 169.695312 300.1875 167.867188 299.882812 166.046875 299.535156 C 164.226562 299.1875 162.414062 298.792969 160.613281 298.359375 C 158.8125 297.921875 157.023438 297.441406 155.246094 296.917969 C 153.464844 296.394531 151.703125 295.828125 149.953125 295.21875 C 148.199219 294.609375 146.464844 293.960938 144.746094 293.265625 C 143.027344 292.570312 141.328125 291.835938 139.644531 291.058594 C 137.960938 290.285156 136.296875 289.46875 134.65625 288.609375 C 133.011719 287.75 131.390625 286.855469 129.789062 285.917969 C 128.191406 284.980469 126.613281 284.007812 125.0625 282.992188 C 123.511719 281.980469 121.984375 280.929688 120.484375 279.84375 C 118.984375 278.753906 117.507812 277.632812 116.0625 276.472656 C 114.617188 275.3125 113.199219 274.117188 111.8125 272.890625 C 110.421875 271.660156 109.066406 270.398438 107.738281 269.105469 C 106.414062 267.8125 105.117188 266.484375 103.855469 265.128906 C 102.59375 263.769531 101.367188 262.382812 100.171875 260.964844 C 98.976562 259.546875 97.816406 258.101562 96.695312 256.628906 C 95.570312 255.15625 94.480469 253.65625 93.429688 252.128906 C 92.378906 250.601562 91.367188 249.050781 90.390625 247.472656 C 89.414062 245.898438 88.480469 244.296875 87.582031 242.675781 C 86.683594 241.054688 85.828125 239.414062 85.007812 237.75 C 84.191406 236.085938 83.414062 234.402344 82.679688 232.703125 C 81.941406 231 81.25 229.28125 80.597656 227.546875 C 79.945312 225.8125 79.335938 224.0625 78.769531 222.296875 C 78.203125 220.53125 77.679688 218.753906 77.199219 216.964844 C 77.054688 216.425781 76.917969 215.882812 76.777344 215.34375 Z M 78.523438 214.730469 " fill-opacity="1" fill-rule="evenodd"/></g><g fill="#000000" fill-opacity="1"><g transform="translate(54.579655, 193.547565)"><g><path d="M 7.78125 -23.890625 L 7.78125 -4.546875 L 19.015625 -4.546875 L 19.015625 0 L 3.078125 0 L 3.078125 -23.890625 Z M 7.78125 -23.890625 "/></g></g></g><g fill="#000000" fill-opacity="1"><g transform="translate(101.349853, 193.547565)"><g><path d="M 14.890625 -4.671875 L 6.984375 -4.671875 L 5.03125 0 L 0.390625 0 L 11.15625 -24.828125 L 11.421875 -24.828125 L 22.203125 0 L 16.75 0 Z M 13.34375 -8.625 L 11.03125 -14.4375 L 8.625 -8.625 Z M 13.34375 -8.625 "/></g></g></g><g fill="#000000" fill-opacity="1"><g transform="translate(149.904757, 193.547565)"><g><path d="M 7.296875 -8.828125 C 7.296875 -8.066406 7.523438 -7.335938 7.984375 -6.640625 C 8.441406 -5.953125 9.046875 -5.390625 9.796875 -4.953125 C 10.554688 -4.523438 11.367188 -4.3125 12.234375 -4.3125 C 13.160156 -4.3125 14.015625 -4.523438 14.796875 -4.953125 C 15.578125 -5.390625 16.1875 -5.953125 16.625 -6.640625 C 17.070312 -7.335938 17.296875 -8.066406 17.296875 -8.828125 L 17.296875 -23.890625 L 21.9375 -23.890625 L 21.9375 -8.734375 C 21.9375 -7.023438 21.503906 -5.484375 20.640625 -4.109375 C 19.773438 -2.734375 18.597656 -1.660156 17.109375 -0.890625 C 15.628906 -0.117188 14.003906 0.265625 12.234375 0.265625 C 10.460938 0.265625 8.835938 -0.117188 7.359375 -0.890625 C 5.890625 -1.660156 4.726562 -2.734375 3.875 -4.109375 C 3.019531 -5.484375 2.59375 -7.023438 2.59375 -8.734375 L 2.59375 -23.890625 L 7.296875 -23.890625 Z M 7.296875 -8.828125 "/></g></g></g><g fill="#000000" fill-opacity="1"><g transform="translate(200.406627, 193.547565)"><g><path d="M 15.375 -12.59375 C 16.632812 -12.007812 17.613281 -11.242188 18.3125 -10.296875 C 19.019531 -9.359375 19.375 -8.273438 19.375 -7.046875 C 19.375 -4.617188 18.578125 -2.835938 16.984375 -1.703125 C 15.398438 -0.566406 13.414062 0 11.03125 0 L 3.078125 0 L 3.078125 -23.890625 L 10.09375 -23.890625 C 12.625 -23.890625 14.613281 -23.375 16.0625 -22.34375 C 17.507812 -21.3125 18.234375 -19.820312 18.234375 -17.875 C 18.234375 -16.6875 17.984375 -15.644531 17.484375 -14.75 C 16.992188 -13.851562 16.289062 -13.132812 15.375 -12.59375 Z M 7.78125 -14.109375 L 10.640625 -14.109375 C 11.503906 -14.109375 12.175781 -14.375 12.65625 -14.90625 C 13.132812 -15.4375 13.375 -16.09375 13.375 -16.875 C 13.375 -17.675781 13.101562 -18.285156 12.5625 -18.703125 C 12.019531 -19.128906 11.269531 -19.34375 10.3125 -19.34375 L 7.78125 -19.34375 Z M 10.8125 -4.375 C 11.914062 -4.375 12.804688 -4.597656 13.484375 -5.046875 C 14.160156 -5.492188 14.5 -6.160156 14.5 -7.046875 C 14.5 -8.734375 13.160156 -9.578125 10.484375 -9.578125 L 7.78125 -9.578125 L 7.78125 -4.375 Z M 10.8125 -4.375 "/></g></g></g><g fill="#000000" fill-opacity="1"><g transform="translate(247.371528, 193.547565)"><g><path d="M 19.375 -23.890625 L 19.375 -19.34375 L 7.78125 -19.34375 L 7.78125 -14.25 L 18.046875 -14.25 L 18.046875 -9.703125 L 7.78125 -9.703125 L 7.78125 -4.546875 L 19.828125 -4.546875 L 19.828125 0 L 3.078125 0 L 3.078125 -23.890625 Z M 19.375 -23.890625 "/></g></g></g><g fill="#000000" fill-opacity="1"><g transform="translate(294.952969, 193.547565)"><g><path d="M 15.96875 0 L 10.9375 -7.59375 L 7.78125 -7.59375 L 7.78125 0 L 3.078125 0 L 3.078125 -23.890625 L 10.3125 -23.890625 C 13.28125 -23.890625 15.582031 -23.164062 17.21875 -21.71875 C 18.851562 -20.28125 19.671875 -18.320312 19.671875 -15.84375 C 19.671875 -14.363281 19.359375 -12.976562 18.734375 -11.6875 C 18.117188 -10.40625 17.175781 -9.398438 15.90625 -8.671875 L 21.453125 0 Z M 7.78125 -12.140625 L 11.125 -12.140625 C 12.40625 -12.140625 13.335938 -12.507812 13.921875 -13.25 C 14.503906 -14 14.796875 -14.804688 14.796875 -15.671875 C 14.796875 -16.535156 14.546875 -17.363281 14.046875 -18.15625 C 13.554688 -18.945312 12.59375 -19.34375 11.15625 -19.34375 L 7.78125 -19.34375 Z M 7.78125 -12.140625 "/></g></g></g><g fill="#000000" fill-opacity="1"><g transform="translate(147.434875, 226.574895)"><g><path d="M 7.640625 0.359375 L 5.75 -4.4375 L 3.625 0.375 L 0.40625 -7.984375 L 1.90625 -7.984375 L 3.78125 -2.625 L 5.125 -6.046875 L 4.34375 -7.984375 L 5.609375 -7.984375 L 7.671875 -2.78125 L 9.40625 -7.984375 L 10.78125 -7.984375 Z M 7.640625 0.359375 "/></g></g></g><g fill="#000000" fill-opacity="1"><g transform="translate(163.033114, 226.574895)"><g><path d="M 6.4375 -8.03125 L 6.4375 -6.796875 L 2.390625 -6.796875 L 2.390625 -4.65625 L 5.984375 -4.65625 L 5.984375 -3.421875 L 2.390625 -3.421875 L 2.390625 -1.234375 L 6.578125 -1.234375 L 6.578125 0 L 1.109375 0 L 1.109375 -8.03125 Z M 6.4375 -8.03125 "/></g></g></g><g fill="#000000" fill-opacity="1"><g transform="translate(174.704205, 226.574895)"><g><path d="M 1.109375 -8.03125 L 3.390625 -8.03125 C 4.390625 -8.03125 5.21875 -7.832031 5.875 -7.4375 C 6.539062 -7.039062 7.023438 -6.53125 7.328125 -5.90625 C 7.628906 -5.28125 7.78125 -4.613281 7.78125 -3.90625 C 7.78125 -3.125 7.597656 -2.4375 7.234375 -1.84375 C 6.867188 -1.25 6.378906 -0.789062 5.765625 -0.46875 C 5.160156 -0.15625 4.492188 0 3.765625 0 L 1.109375 0 Z M 3.546875 -1.234375 C 4.117188 -1.234375 4.625 -1.335938 5.0625 -1.546875 C 5.5 -1.765625 5.835938 -2.082031 6.078125 -2.5 C 6.328125 -2.914062 6.453125 -3.414062 6.453125 -4 C 6.453125 -4.625 6.316406 -5.144531 6.046875 -5.5625 C 5.773438 -5.988281 5.429688 -6.300781 5.015625 -6.5 C 4.609375 -6.707031 4.179688 -6.8125 3.734375 -6.8125 L 2.390625 -6.8125 L 2.390625 -1.234375 Z M 3.546875 -1.234375 "/></g></g></g><g fill="#000000" fill-opacity="1"><g transform="translate(187.51152, 226.574895)"><g><path d="M 1.109375 -8.03125 L 3.390625 -8.03125 C 4.390625 -8.03125 5.21875 -7.832031 5.875 -7.4375 C 6.539062 -7.039062 7.023438 -6.53125 7.328125 -5.90625 C 7.628906 -5.28125 7.78125 -4.613281 7.78125 -3.90625 C 7.78125 -3.125 7.597656 -2.4375 7.234375 -1.84375 C 6.867188 -1.25 6.378906 -0.789062 5.765625 -0.46875 C 5.160156 -0.15625 4.492188 0 3.765625 0 L 1.109375 0 Z M 3.546875 -1.234375 C 4.117188 -1.234375 4.625 -1.335938 5.0625 -1.546875 C 5.5 -1.765625 5.835938 -2.082031 6.078125 -2.5 C 6.328125 -2.914062 6.453125 -3.414062 6.453125 -4 C 6.453125 -4.625 6.316406 -5.144531 6.046875 -5.5625 C 5.773438 -5.988281 5.429688 -6.300781 5.015625 -6.5 C 4.609375 -6.707031 4.179688 -6.8125 3.734375 -6.8125 L 2.390625 -6.8125 L 2.390625 -1.234375 Z M 3.546875 -1.234375 "/></g></g></g><g fill="#000000" fill-opacity="1"><g transform="translate(200.318834, 226.574895)"><g><path d="M 2.390625 -8.03125 L 2.390625 0 L 1.109375 0 L 1.109375 -8.03125 Z M 2.390625 -8.03125 "/></g></g></g><g fill="#000000" fill-opacity="1"><g transform="translate(208.228256, 226.574895)"><g><path d="M 8.203125 -8.03125 L 8.203125 0.28125 L 8.15625 0.28125 L 2.375 -5.328125 L 2.40625 0 L 1.109375 0 L 1.109375 -8.3125 L 1.171875 -8.3125 L 6.9375 -2.625 L 6.921875 -8.03125 Z M 8.203125 -8.03125 "/></g></g></g><g fill="#000000" fill-opacity="1"><g transform="translate(221.951168, 226.574895)"><g><path d="M 7.484375 -0.734375 C 7.265625 -0.535156 6.878906 -0.347656 6.328125 -0.171875 C 5.785156 0.00390625 5.285156 0.09375 4.828125 0.09375 C 3.984375 0.09375 3.238281 -0.0703125 2.59375 -0.40625 C 1.957031 -0.75 1.46875 -1.21875 1.125 -1.8125 C 0.78125 -2.40625 0.609375 -3.078125 0.609375 -3.828125 C 0.609375 -4.734375 0.789062 -5.507812 1.15625 -6.15625 C 1.53125 -6.800781 2.03125 -7.289062 2.65625 -7.625 C 3.289062 -7.957031 3.984375 -8.125 4.734375 -8.125 C 5.191406 -8.125 5.628906 -8.066406 6.046875 -7.953125 C 6.460938 -7.847656 6.828125 -7.707031 7.140625 -7.53125 L 6.734375 -6.34375 C 6.503906 -6.476562 6.207031 -6.59375 5.84375 -6.6875 C 5.488281 -6.78125 5.171875 -6.828125 4.890625 -6.828125 C 3.972656 -6.828125 3.25 -6.570312 2.71875 -6.0625 C 2.195312 -5.5625 1.9375 -4.851562 1.9375 -3.9375 C 1.9375 -3.394531 2.054688 -2.914062 2.296875 -2.5 C 2.546875 -2.082031 2.890625 -1.757812 3.328125 -1.53125 C 3.773438 -1.300781 4.285156 -1.1875 4.859375 -1.1875 C 5.117188 -1.1875 5.363281 -1.207031 5.59375 -1.25 C 5.832031 -1.300781 6.035156 -1.375 6.203125 -1.46875 L 6.203125 -2.796875 L 4.6875 -2.796875 L 4.6875 -4.03125 L 7.484375 -4.03125 Z M 7.484375 -0.734375 "/></g></g></g><g fill="#000000" fill-opacity="1"><g transform="translate(127.957864, 241.283199)"><g><path d="M 1.109375 -8.03125 L 3.390625 -8.03125 C 4.390625 -8.03125 5.21875 -7.832031 5.875 -7.4375 C 6.539062 -7.039062 7.023438 -6.53125 7.328125 -5.90625 C 7.628906 -5.28125 7.78125 -4.613281 7.78125 -3.90625 C 7.78125 -3.125 7.597656 -2.4375 7.234375 -1.84375 C 6.867188 -1.25 6.378906 -0.789062 5.765625 -0.46875 C 5.160156 -0.15625 4.492188 0 3.765625 0 L 1.109375 0 Z M 3.546875 -1.234375 C 4.117188 -1.234375 4.625 -1.335938 5.0625 -1.546875 C 5.5 -1.765625 5.835938 -2.082031 6.078125 -2.5 C 6.328125 -2.914062 6.453125 -3.414062 6.453125 -4 C 6.453125 -4.625 6.316406 -5.144531 6.046875 -5.5625 C 5.773438 -5.988281 5.429688 -6.300781 5.015625 -6.5 C 4.609375 -6.707031 4.179688 -6.8125 3.734375 -6.8125 L 2.390625 -6.8125 L 2.390625 -1.234375 Z M 3.546875 -1.234375 "/></g></g></g><g fill="#000000" fill-opacity="1"><g transform="translate(140.765179, 241.283199)"><g><path d="M 6.4375 -8.03125 L 6.4375 -6.796875 L 2.390625 -6.796875 L 2.390625 -4.65625 L 5.984375 -4.65625 L 5.984375 -3.421875 L 2.390625 -3.421875 L 2.390625 -1.234375 L 6.578125 -1.234375 L 6.578125 0 L 1.109375 0 L 1.109375 -8.03125 Z M 6.4375 -8.03125 "/></g></g></g><g fill="#000000" fill-opacity="1"><g transform="translate(152.436271, 241.283199)"><g><path d="M 5.3125 -6.390625 C 4.625 -6.753906 4.007812 -6.9375 3.46875 -6.9375 C 3.070312 -6.9375 2.757812 -6.847656 2.53125 -6.671875 C 2.300781 -6.492188 2.1875 -6.253906 2.1875 -5.953125 C 2.1875 -5.648438 2.332031 -5.394531 2.625 -5.1875 C 2.914062 -4.988281 3.320312 -4.789062 3.84375 -4.59375 C 4.238281 -4.445312 4.578125 -4.285156 4.859375 -4.109375 C 5.140625 -3.929688 5.367188 -3.6875 5.546875 -3.375 C 5.734375 -3.0625 5.828125 -2.671875 5.828125 -2.203125 C 5.828125 -1.773438 5.722656 -1.390625 5.515625 -1.046875 C 5.304688 -0.703125 5 -0.425781 4.59375 -0.21875 C 4.1875 -0.0078125 3.707031 0.09375 3.15625 0.09375 C 2.664062 0.09375 2.1875 0.0195312 1.71875 -0.125 C 1.25 -0.28125 0.832031 -0.492188 0.46875 -0.765625 L 1.03125 -1.765625 C 1.300781 -1.554688 1.625 -1.382812 2 -1.25 C 2.375 -1.113281 2.71875 -1.046875 3.03125 -1.046875 C 3.425781 -1.046875 3.769531 -1.140625 4.0625 -1.328125 C 4.351562 -1.515625 4.5 -1.800781 4.5 -2.1875 C 4.5 -2.5 4.375 -2.757812 4.125 -2.96875 C 3.882812 -3.175781 3.539062 -3.363281 3.09375 -3.53125 C 2.644531 -3.695312 2.269531 -3.863281 1.96875 -4.03125 C 1.664062 -4.195312 1.40625 -4.425781 1.1875 -4.71875 C 0.96875 -5.019531 0.859375 -5.394531 0.859375 -5.84375 C 0.859375 -6.5 1.078125 -7.023438 1.515625 -7.421875 C 1.960938 -7.828125 2.550781 -8.046875 3.28125 -8.078125 C 3.8125 -8.078125 4.273438 -8.015625 4.671875 -7.890625 C 5.078125 -7.765625 5.453125 -7.59375 5.796875 -7.375 Z M 5.3125 -6.390625 "/></g></g></g><g fill="#000000" fill-opacity="1"><g transform="translate(163.268988, 241.283199)"><g><path d="M 5.90625 -8.03125 L 5.90625 -6.796875 L 3.828125 -6.796875 L 3.828125 0 L 2.546875 0 L 2.546875 -6.796875 L 0.53125 -6.796875 L 0.53125 -8.03125 Z M 5.90625 -8.03125 "/></g></g></g><g fill="#000000" fill-opacity="1"><g transform="translate(174.112728, 241.283199)"><g><path d="M 2.390625 -8.03125 L 2.390625 0 L 1.109375 0 L 1.109375 -8.03125 Z M 2.390625 -8.03125 "/></g></g></g><g fill="#000000" fill-opacity="1"><g transform="translate(182.022147, 241.283199)"><g><path d="M 8.203125 -8.03125 L 8.203125 0.28125 L 8.15625 0.28125 L 2.375 -5.328125 L 2.40625 0 L 1.109375 0 L 1.109375 -8.3125 L 1.171875 -8.3125 L 6.9375 -2.625 L 6.921875 -8.03125 Z M 8.203125 -8.03125 "/></g></g></g><g fill="#000000" fill-opacity="1"><g transform="translate(195.745059, 241.283199)"><g><path d="M 5.234375 -1.890625 L 2.3125 -1.890625 L 1.53125 0 L 0.265625 0 L 3.8125 -8.359375 L 3.890625 -8.359375 L 7.453125 0 L 5.96875 0 Z M 4.796875 -2.984375 L 3.796875 -5.53125 L 2.75 -2.984375 Z M 4.796875 -2.984375 "/></g></g></g><g fill="#000000" fill-opacity="1"><g transform="translate(207.868437, 241.283199)"><g><path d="M 5.90625 -8.03125 L 5.90625 -6.796875 L 3.828125 -6.796875 L 3.828125 0 L 2.546875 0 L 2.546875 -6.796875 L 0.53125 -6.796875 L 0.53125 -8.03125 Z M 5.90625 -8.03125 "/></g></g></g><g fill="#000000" fill-opacity="1"><g transform="translate(218.712181, 241.283199)"><g><path d="M 2.390625 -8.03125 L 2.390625 0 L 1.109375 0 L 1.109375 -8.03125 Z M 2.390625 -8.03125 "/></g></g></g><g fill="#000000" fill-opacity="1"><g transform="translate(226.621603, 241.283199)"><g><path d="M 0.609375 -4 C 0.609375 -4.738281 0.789062 -5.421875 1.15625 -6.046875 C 1.519531 -6.679688 2.015625 -7.1875 2.640625 -7.5625 C 3.273438 -7.9375 3.960938 -8.125 4.703125 -8.125 C 5.441406 -8.125 6.125 -7.9375 6.75 -7.5625 C 7.382812 -7.1875 7.890625 -6.679688 8.265625 -6.046875 C 8.640625 -5.410156 8.828125 -4.726562 8.828125 -4 C 8.828125 -3.257812 8.640625 -2.578125 8.265625 -1.953125 C 7.890625 -1.328125 7.382812 -0.828125 6.75 -0.453125 C 6.125 -0.0859375 5.441406 0.09375 4.703125 0.09375 C 3.960938 0.09375 3.273438 -0.0859375 2.640625 -0.453125 C 2.015625 -0.816406 1.519531 -1.3125 1.15625 -1.9375 C 0.789062 -2.5625 0.609375 -3.25 0.609375 -4 Z M 1.9375 -4 C 1.9375 -3.476562 2.0625 -3 2.3125 -2.5625 C 2.5625 -2.132812 2.898438 -1.789062 3.328125 -1.53125 C 3.753906 -1.269531 4.226562 -1.140625 4.75 -1.140625 C 5.25 -1.140625 5.707031 -1.265625 6.125 -1.515625 C 6.550781 -1.773438 6.882812 -2.125 7.125 -2.5625 C 7.375 -3 7.5 -3.476562 7.5 -4 C 7.5 -4.519531 7.375 -5 7.125 -5.4375 C 6.875 -5.882812 6.535156 -6.238281 6.109375 -6.5 C 5.679688 -6.757812 5.210938 -6.890625 4.703125 -6.890625 C 4.191406 -6.890625 3.722656 -6.757812 3.296875 -6.5 C 2.878906 -6.238281 2.546875 -5.882812 2.296875 -5.4375 C 2.054688 -5 1.9375 -4.519531 1.9375 -4 Z M 1.9375 -4 "/></g></g></g><g fill="#000000" fill-opacity="1"><g transform="translate(240.465862, 241.283199)"><g><path d="M 8.203125 -8.03125 L 8.203125 0.28125 L 8.15625 0.28125 L 2.375 -5.328125 L 2.40625 0 L 1.109375 0 L 1.109375 -8.3125 L 1.171875 -8.3125 L 6.9375 -2.625 L 6.921875 -8.03125 Z M 8.203125 -8.03125 "/></g></g></g><g fill="#3d3b3a" fill-opacity="1"><g transform="translate(167.705282, 184.147275)"><g><path d="M 54.722656 -57.515625 C 54.117188 -57.757812 53.148438 -57.878906 50.355469 -58.121094 C 47.808594 -58.363281 29 -59.09375 26.695312 -59.09375 L 23.296875 -59.214844 L 20.992188 -59.214844 C 21.355469 -59.699219 22.449219 -60.914062 23.175781 -61.519531 C 23.660156 -61.882812 24.148438 -62.367188 24.632812 -62.976562 C 25.117188 -63.582031 26.816406 -65.160156 27.664062 -65.886719 L 28.878906 -66.859375 L 29.363281 -67.464844 C 29.726562 -67.828125 29.726562 -67.949219 29.484375 -68.3125 C 29.363281 -68.558594 29.121094 -68.679688 29 -68.679688 C 28.757812 -68.679688 27.300781 -67.585938 27.179688 -67.222656 L 26.089844 -66.25 C 24.753906 -65.160156 24.511719 -65.039062 24.269531 -64.675781 C 24.023438 -64.429688 20.871094 -61.398438 20.386719 -61.035156 L 20.019531 -60.671875 L 19.050781 -59.578125 L 18.566406 -59.09375 L 1.457031 -58.730469 L -1.214844 -58.484375 C -3.277344 -58.363281 -9.101562 -57.878906 -10.070312 -57.636719 C -11.042969 -57.394531 -11.527344 -56.910156 -11.164062 -56.542969 C -11.042969 -56.300781 -8.613281 -56.542969 -6.917969 -56.910156 C -6.550781 -57.03125 -3.640625 -57.394531 -0.726562 -57.515625 L 2.304688 -57.757812 L 5.582031 -57.878906 L 9.585938 -58.121094 C 10.679688 -58.242188 14.804688 -58.242188 17.472656 -58.242188 C 17.351562 -58 17.109375 -57.878906 16.988281 -57.636719 L 16.625 -57.394531 L 16.257812 -56.910156 L 14.804688 -55.332031 C 13.105469 -53.511719 7.765625 -47.6875 6.671875 -46.109375 C 6.671875 -46.109375 4.730469 -43.804688 4.730469 -43.925781 C 4.730469 -43.804688 4.246094 -43.316406 3.761719 -42.832031 C 3.15625 -42.226562 2.183594 -41.132812 -0.363281 -38.101562 L -1.335938 -37.007812 L -2.304688 -35.796875 C -2.546875 -35.429688 -2.667969 -35.1875 -2.789062 -35.1875 C -3.035156 -35.1875 -3.640625 -34.460938 -5.582031 -31.914062 C -6.308594 -31.0625 -6.917969 -30.335938 -7.160156 -30.214844 C -7.28125 -29.972656 -8.492188 -28.515625 -9.828125 -26.9375 L -12.863281 -23.175781 L -17.835938 -16.503906 C -19.050781 -14.804688 -19.777344 -13.832031 -20.019531 -13.953125 L -20.019531 -13.710938 C -20.019531 -13.589844 -20.019531 -13.347656 -20.140625 -13.105469 C -20.265625 -12.742188 -20.386719 -12.621094 -20.507812 -12.742188 C -20.507812 -12.621094 -20.628906 -12.496094 -20.628906 -12.496094 C -20.628906 -12.253906 -20.628906 -12.132812 -20.75 -12.132812 C -20.75 -12.253906 -21.113281 -11.527344 -21.355469 -10.679688 C -21.839844 -9.464844 -21.960938 -8.980469 -21.839844 -8.371094 C -21.597656 -7.644531 -21.476562 -7.523438 -21.113281 -7.402344 C -20.628906 -7.402344 -20.386719 -7.402344 -20.265625 -7.644531 C -20.019531 -8.007812 -20.019531 -8.007812 -20.507812 -8.128906 C -20.992188 -8.128906 -20.992188 -8.25 -20.992188 -8.738281 C -20.871094 -9.34375 -19.898438 -11.40625 -19.050781 -12.742188 C -16.746094 -16.136719 -10.679688 -23.902344 -6.796875 -28.394531 L -4.855469 -30.699219 L -0.847656 -35.308594 L 2.425781 -38.949219 L 3.519531 -40.285156 L 4.976562 -41.863281 C 6.066406 -43.074219 7.039062 -44.289062 9.101562 -46.714844 C 9.828125 -47.566406 10.679688 -48.414062 11.042969 -48.777344 C 11.40625 -49.144531 12.011719 -49.871094 12.375 -50.355469 L 14.4375 -52.539062 C 15.773438 -53.996094 16.625 -54.722656 17.351562 -55.695312 L 18.445312 -56.785156 C 18.808594 -57.273438 19.171875 -57.515625 19.414062 -57.878906 L 20.019531 -58.242188 C 20.992188 -58.363281 21.71875 -58.242188 22.082031 -58.242188 L 22.570312 -58.242188 C 29.605469 -58.121094 46.472656 -57.636719 48.898438 -57.273438 C 49.628906 -57.03125 50.839844 -57.03125 51.449219 -56.910156 C 52.660156 -56.910156 52.660156 -56.910156 52.417969 -56.421875 C 52.175781 -56.179688 52.296875 -55.9375 52.417969 -55.816406 C 52.660156 -55.574219 52.78125 -55.453125 52.902344 -55.574219 L 54.117188 -56.058594 C 55.453125 -56.664062 55.574219 -57.03125 54.722656 -57.515625 Z M 54.722656 -57.515625 "/></g></g></g><g fill="#3d3b3a" fill-opacity="1"><g transform="translate(180.081816, 184.147275)"><g><path d="M 43.683594 -66.738281 C 43.441406 -67.101562 42.226562 -67.101562 41.011719 -66.859375 L 39.679688 -66.617188 C 38.949219 -66.496094 37.738281 -66.128906 37.25 -65.886719 L 36.28125 -65.644531 C 33.734375 -64.917969 30.335938 -63.460938 27.785156 -62.003906 L 26.453125 -61.277344 L 25.359375 -60.546875 L 23.296875 -59.214844 C 21.839844 -58.242188 20.140625 -57.03125 20.019531 -56.910156 L 16.136719 -53.875 L 13.589844 -51.691406 L 9.464844 -48.050781 C 8.859375 -47.445312 8.128906 -46.714844 7.765625 -46.472656 L 6.671875 -46.109375 C 6.066406 -45.867188 5.582031 -45.746094 5.582031 -45.625 C 5.582031 -45.625 5.460938 -45.503906 5.339844 -45.503906 C 5.21875 -45.503906 4.855469 -45.382812 4.367188 -45.136719 C 4.003906 -45.015625 3.761719 -44.894531 3.640625 -44.773438 L 2.425781 -44.289062 L -1.335938 -42.953125 C -1.699219 -42.832031 -2.183594 -42.589844 -2.304688 -42.46875 C -2.546875 -41.984375 -2.425781 -41.742188 -1.941406 -41.742188 C -1.699219 -41.742188 -1.214844 -41.863281 -0.726562 -41.984375 L 0.484375 -42.589844 C 0.847656 -42.832031 1.335938 -42.953125 1.820312 -43.074219 L 4.003906 -43.804688 C 4.125 -43.925781 4.367188 -43.925781 4.609375 -44.046875 C 4.609375 -44.167969 5.460938 -44.410156 5.582031 -44.289062 C 5.582031 -44.289062 4.730469 -43.316406 3.519531 -42.226562 L -0.726562 -37.738281 L -1.214844 -37.25 L -2.304688 -35.917969 L -3.398438 -34.703125 C -3.761719 -34.339844 -4.246094 -33.855469 -4.246094 -33.367188 C -4.246094 -33.003906 -3.761719 -32.761719 -3.519531 -32.640625 C -3.15625 -32.519531 -3.035156 -32.640625 -2.914062 -32.761719 L -2.546875 -33.003906 L -1.941406 -33.488281 L -1.578125 -33.855469 L -1.214844 -34.097656 L -0.972656 -34.21875 L 0.484375 -35.675781 L 1.214844 -36.039062 L 1.335938 -36.039062 L 2.0625 -36.523438 C 2.304688 -36.765625 2.914062 -37.007812 3.398438 -37.128906 L 4.730469 -37.617188 C 5.097656 -37.738281 5.339844 -37.859375 5.339844 -37.738281 C 5.339844 -37.617188 5.339844 -37.617188 5.21875 -37.617188 C 5.097656 -37.617188 4.246094 -36.523438 3.882812 -35.796875 L 3.519531 -35.066406 C 3.035156 -33.976562 3.035156 -33.488281 3.640625 -33.003906 C 4.003906 -32.761719 4.246094 -32.640625 4.609375 -32.761719 L 4.855469 -32.882812 C 5.824219 -33.003906 9.101562 -34.460938 9.585938 -34.703125 C 10.3125 -34.945312 10.070312 -35.066406 11.769531 -35.796875 C 12.011719 -35.796875 12.496094 -36.28125 13.105469 -36.523438 C 15.652344 -37.738281 13.46875 -36.886719 15.773438 -37.738281 C 16.867188 -38.464844 16.015625 -38.464844 15.53125 -38.464844 L 12.496094 -37.128906 C 10.921875 -36.402344 6.671875 -34.582031 5.460938 -34.097656 L 4.976562 -33.976562 L 4.730469 -33.976562 C 4.609375 -33.976562 4.730469 -34.460938 5.097656 -35.1875 L 5.21875 -35.550781 C 5.460938 -36.039062 6.1875 -36.886719 7.28125 -37.980469 C 7.765625 -38.585938 7.886719 -38.707031 7.765625 -38.949219 C 7.523438 -39.3125 7.039062 -39.3125 5.460938 -38.828125 C 3.519531 -38.101562 2.425781 -37.738281 1.457031 -37.25 C 1.335938 -37.25 1.335938 -37.128906 1.214844 -37.128906 C 0.972656 -37.007812 0.726562 -36.886719 0.605469 -37.007812 L 0.605469 -37.25 C 0.972656 -37.859375 4.246094 -41.132812 6.550781 -43.441406 L 8.613281 -45.503906 L 9.222656 -45.867188 L 13.832031 -47.929688 C 15.410156 -48.65625 16.382812 -49.019531 16.625 -49.144531 L 18.6875 -49.992188 C 19.65625 -50.476562 20.628906 -50.839844 20.75 -50.839844 C 20.992188 -50.839844 21.597656 -51.085938 22.082031 -51.328125 C 24.632812 -52.539062 30.214844 -55.089844 31.546875 -55.9375 L 32.277344 -56.179688 C 32.640625 -56.300781 32.882812 -56.542969 32.882812 -56.664062 C 33.003906 -56.785156 33.246094 -56.910156 33.488281 -57.03125 C 33.734375 -57.03125 34.21875 -57.273438 34.582031 -57.515625 L 36.402344 -58.605469 C 37.007812 -59.09375 38.222656 -59.820312 38.949219 -60.425781 L 40.769531 -61.761719 C 41.375 -62.125 42.953125 -63.703125 43.441406 -64.554688 C 44.046875 -65.402344 44.046875 -66.25 43.683594 -66.738281 Z M 42.46875 -64.917969 L 41.742188 -64.066406 C 41.5 -63.703125 41.132812 -63.21875 41.011719 -63.21875 L 39.800781 -62.246094 C 39.070312 -61.519531 37.25 -60.304688 35.675781 -59.335938 L 31.546875 -57.03125 L 30.09375 -56.300781 L 28.757812 -55.574219 L 26.453125 -54.480469 C 25.722656 -53.996094 24.875 -53.632812 24.511719 -53.511719 L 22.8125 -52.902344 L 20.386719 -51.8125 L 17.714844 -50.71875 C 17.109375 -50.476562 16.503906 -50.234375 16.382812 -50.234375 C 16.257812 -50.234375 15.773438 -49.992188 15.167969 -49.75 C 14.683594 -49.507812 14.074219 -49.265625 13.953125 -49.265625 C 13.832031 -49.265625 13.226562 -48.898438 12.496094 -48.535156 C 11.648438 -48.171875 11.285156 -48.050781 11.285156 -48.171875 C 11.285156 -48.292969 11.285156 -48.535156 11.40625 -48.535156 L 12.863281 -49.75 C 15.289062 -51.933594 19.777344 -55.695312 20.019531 -55.695312 L 20.992188 -56.421875 C 22.8125 -57.878906 26.695312 -60.425781 29.726562 -62.003906 C 32.035156 -63.097656 35.1875 -64.308594 37.371094 -64.917969 L 39.3125 -65.523438 C 39.679688 -65.644531 41.742188 -65.886719 42.105469 -65.765625 C 42.347656 -65.644531 42.46875 -65.523438 42.589844 -65.28125 C 42.589844 -65.160156 42.46875 -64.917969 42.46875 -64.917969 Z M 42.46875 -64.917969 "/></g></g></g><g fill="#3d3b3a" fill-opacity="1"><g transform="translate(197.554543, 184.147275)"><g><path d="M -1.214844 -33.125 C 0.121094 -33.367188 0.972656 -33.609375 3.15625 -34.703125 L 8.613281 -37.128906 L 10.191406 -37.859375 C 10.3125 -37.980469 10.3125 -38.34375 10.070312 -38.464844 L 9.949219 -38.585938 L 9.585938 -38.585938 L 9.34375 -38.464844 C 2.667969 -35.550781 -1.335938 -34.097656 -2.0625 -34.339844 C -2.304688 -34.460938 -2.304688 -34.582031 -1.941406 -34.945312 C -1.699219 -35.429688 -1.457031 -35.550781 -0.605469 -35.796875 C 0.726562 -36.160156 1.941406 -36.765625 4.003906 -38.222656 C 5.945312 -39.558594 6.796875 -40.285156 6.671875 -40.648438 C 6.429688 -41.375 5.339844 -41.253906 3.398438 -40.527344 C 0.972656 -39.679688 -1.820312 -37.492188 -3.035156 -35.550781 C -3.640625 -34.582031 -3.761719 -34.21875 -3.519531 -33.734375 C -3.398438 -32.882812 -3.15625 -32.882812 -1.214844 -33.125 Z M -0.242188 -37.128906 C -0.121094 -37.492188 1.941406 -38.949219 2.789062 -39.191406 C 3.519531 -39.558594 4.730469 -40.042969 4.730469 -39.800781 C 4.609375 -39.679688 2.789062 -38.464844 1.699219 -37.859375 C 0.363281 -37.128906 -0.484375 -36.886719 -0.242188 -37.128906 Z M -0.242188 -37.128906 "/></g></g></g><g fill="#000000" fill-opacity="1"><g transform="translate(156.814561, 259.009117)"><g><path d="M 4.265625 -5.328125 L 4.265625 -4.515625 L 1.59375 -4.515625 L 1.59375 -3.09375 L 3.984375 -3.09375 L 3.984375 -2.265625 L 1.59375 -2.265625 L 1.59375 -0.828125 L 4.375 -0.828125 L 4.375 0 L 0.734375 0 L 0.734375 -5.328125 Z M 4.265625 -5.328125 "/></g></g></g><g fill="#000000" fill-opacity="1"><g transform="translate(164.565325, 259.009117)"><g><path d="M 3.53125 -4.25 C 3.070312 -4.488281 2.664062 -4.609375 2.3125 -4.609375 C 2.039062 -4.609375 1.828125 -4.546875 1.671875 -4.421875 C 1.523438 -4.304688 1.453125 -4.148438 1.453125 -3.953125 C 1.453125 -3.753906 1.546875 -3.585938 1.734375 -3.453125 C 1.929688 -3.316406 2.203125 -3.179688 2.546875 -3.046875 C 2.816406 -2.953125 3.046875 -2.84375 3.234375 -2.71875 C 3.421875 -2.601562 3.570312 -2.441406 3.6875 -2.234375 C 3.8125 -2.035156 3.875 -1.78125 3.875 -1.46875 C 3.875 -1.1875 3.800781 -0.929688 3.65625 -0.703125 C 3.519531 -0.472656 3.316406 -0.285156 3.046875 -0.140625 C 2.773438 -0.00390625 2.457031 0.0625 2.09375 0.0625 C 1.769531 0.0625 1.453125 0.015625 1.140625 -0.078125 C 0.828125 -0.179688 0.550781 -0.320312 0.3125 -0.5 L 0.6875 -1.171875 C 0.863281 -1.035156 1.078125 -0.921875 1.328125 -0.828125 C 1.578125 -0.742188 1.804688 -0.703125 2.015625 -0.703125 C 2.273438 -0.703125 2.5 -0.757812 2.6875 -0.875 C 2.882812 -1 2.984375 -1.191406 2.984375 -1.453125 C 2.984375 -1.660156 2.898438 -1.832031 2.734375 -1.96875 C 2.578125 -2.101562 2.351562 -2.226562 2.0625 -2.34375 C 1.757812 -2.457031 1.503906 -2.566406 1.296875 -2.671875 C 1.097656 -2.785156 0.925781 -2.941406 0.78125 -3.140625 C 0.644531 -3.335938 0.578125 -3.585938 0.578125 -3.890625 C 0.578125 -4.316406 0.722656 -4.660156 1.015625 -4.921875 C 1.304688 -5.191406 1.695312 -5.335938 2.1875 -5.359375 C 2.539062 -5.359375 2.847656 -5.316406 3.109375 -5.234375 C 3.378906 -5.160156 3.628906 -5.050781 3.859375 -4.90625 Z M 3.53125 -4.25 "/></g></g></g><g fill="#000000" fill-opacity="1"><g transform="translate(171.759325, 259.009117)"><g><path d="M 3.921875 -5.328125 L 3.921875 -4.515625 L 2.546875 -4.515625 L 2.546875 0 L 1.6875 0 L 1.6875 -4.515625 L 0.359375 -4.515625 L 0.359375 -5.328125 Z M 3.921875 -5.328125 "/></g></g></g><g fill="#000000" fill-opacity="1"><g transform="translate(178.960646, 259.009117)"><g><path d="M 0.734375 -5.328125 L 2.25 -5.328125 C 2.914062 -5.328125 3.46875 -5.195312 3.90625 -4.9375 C 4.34375 -4.675781 4.660156 -4.335938 4.859375 -3.921875 C 5.066406 -3.503906 5.171875 -3.0625 5.171875 -2.59375 C 5.171875 -2.070312 5.046875 -1.613281 4.796875 -1.21875 C 4.554688 -0.832031 4.234375 -0.53125 3.828125 -0.3125 C 3.421875 -0.101562 2.976562 0 2.5 0 L 0.734375 0 Z M 2.359375 -0.828125 C 2.734375 -0.828125 3.066406 -0.894531 3.359375 -1.03125 C 3.648438 -1.175781 3.875 -1.382812 4.03125 -1.65625 C 4.195312 -1.9375 4.28125 -2.269531 4.28125 -2.65625 C 4.28125 -3.070312 4.191406 -3.421875 4.015625 -3.703125 C 3.835938 -3.984375 3.609375 -4.1875 3.328125 -4.3125 C 3.054688 -4.445312 2.773438 -4.515625 2.484375 -4.515625 L 1.59375 -4.515625 L 1.59375 -0.828125 Z M 2.359375 -0.828125 "/></g></g></g><g fill="#000000" fill-opacity="1"><g transform="translate(187.465975, 259.009117)"><g/></g></g><g fill="#000000" fill-opacity="1"><g transform="translate(192.740589, 259.009117)"><g><path d="M 3.765625 -0.828125 L 3.765625 0 L 0.390625 0 L 0.65625 -0.265625 C 1.144531 -0.742188 1.523438 -1.132812 1.796875 -1.4375 C 2.078125 -1.75 2.304688 -2.0625 2.484375 -2.375 C 2.671875 -2.6875 2.765625 -2.976562 2.765625 -3.25 C 2.765625 -3.519531 2.679688 -3.722656 2.515625 -3.859375 C 2.359375 -4.003906 2.160156 -4.078125 1.921875 -4.078125 C 1.660156 -4.078125 1.457031 -4.003906 1.3125 -3.859375 C 1.175781 -3.710938 1.109375 -3.546875 1.109375 -3.359375 C 1.109375 -3.054688 1.203125 -2.804688 1.390625 -2.609375 L 0.875 -2.125 C 0.695312 -2.226562 0.550781 -2.40625 0.4375 -2.65625 C 0.332031 -2.90625 0.28125 -3.132812 0.28125 -3.34375 C 0.28125 -3.613281 0.347656 -3.867188 0.484375 -4.109375 C 0.628906 -4.347656 0.835938 -4.535156 1.109375 -4.671875 C 1.378906 -4.816406 1.695312 -4.890625 2.0625 -4.890625 C 2.375 -4.890625 2.648438 -4.816406 2.890625 -4.671875 C 3.128906 -4.535156 3.316406 -4.347656 3.453125 -4.109375 C 3.585938 -3.867188 3.65625 -3.609375 3.65625 -3.328125 C 3.65625 -3.046875 3.585938 -2.769531 3.453125 -2.5 C 3.328125 -2.226562 3.175781 -1.972656 3 -1.734375 C 2.820312 -1.503906 2.570312 -1.203125 2.25 -0.828125 Z M 3.765625 -0.828125 "/></g></g></g><g fill="#000000" fill-opacity="1"><g transform="translate(199.773417, 259.009117)"><g><path d="M 2.296875 0.015625 C 1.898438 0.015625 1.546875 -0.078125 1.234375 -0.265625 C 0.929688 -0.460938 0.691406 -0.742188 0.515625 -1.109375 C 0.335938 -1.484375 0.25 -1.925781 0.25 -2.4375 C 0.25 -3.269531 0.429688 -3.882812 0.796875 -4.28125 C 1.160156 -4.6875 1.660156 -4.890625 2.296875 -4.890625 C 2.679688 -4.890625 3.023438 -4.789062 3.328125 -4.59375 C 3.640625 -4.40625 3.882812 -4.125 4.0625 -3.75 C 4.238281 -3.382812 4.328125 -2.945312 4.328125 -2.4375 C 4.328125 -1.914062 4.238281 -1.46875 4.0625 -1.09375 C 3.882812 -0.726562 3.640625 -0.453125 3.328125 -0.265625 C 3.023438 -0.078125 2.679688 0.015625 2.296875 0.015625 Z M 2.28125 -0.796875 C 2.664062 -0.796875 2.953125 -0.945312 3.140625 -1.25 C 3.335938 -1.550781 3.4375 -1.957031 3.4375 -2.46875 C 3.4375 -2.957031 3.335938 -3.347656 3.140625 -3.640625 C 2.953125 -3.929688 2.664062 -4.070312 2.28125 -4.0625 C 1.90625 -4.070312 1.617188 -3.925781 1.421875 -3.625 C 1.234375 -3.332031 1.140625 -2.9375 1.140625 -2.4375 C 1.140625 -1.9375 1.234375 -1.535156 1.421875 -1.234375 C 1.617188 -0.941406 1.90625 -0.796875 2.28125 -0.796875 Z M 2.28125 -0.796875 "/></g></g></g><g fill="#000000" fill-opacity="1"><g transform="translate(207.282423, 259.009117)"><g><path d="M 3.765625 -0.828125 L 3.765625 0 L 0.390625 0 L 0.65625 -0.265625 C 1.144531 -0.742188 1.523438 -1.132812 1.796875 -1.4375 C 2.078125 -1.75 2.304688 -2.0625 2.484375 -2.375 C 2.671875 -2.6875 2.765625 -2.976562 2.765625 -3.25 C 2.765625 -3.519531 2.679688 -3.722656 2.515625 -3.859375 C 2.359375 -4.003906 2.160156 -4.078125 1.921875 -4.078125 C 1.660156 -4.078125 1.457031 -4.003906 1.3125 -3.859375 C 1.175781 -3.710938 1.109375 -3.546875 1.109375 -3.359375 C 1.109375 -3.054688 1.203125 -2.804688 1.390625 -2.609375 L 0.875 -2.125 C 0.695312 -2.226562 0.550781 -2.40625 0.4375 -2.65625 C 0.332031 -2.90625 0.28125 -3.132812 0.28125 -3.34375 C 0.28125 -3.613281 0.347656 -3.867188 0.484375 -4.109375 C 0.628906 -4.347656 0.835938 -4.535156 1.109375 -4.671875 C 1.378906 -4.816406 1.695312 -4.890625 2.0625 -4.890625 C 2.375 -4.890625 2.648438 -4.816406 2.890625 -4.671875 C 3.128906 -4.535156 3.316406 -4.347656 3.453125 -4.109375 C 3.585938 -3.867188 3.65625 -3.609375 3.65625 -3.328125 C 3.65625 -3.046875 3.585938 -2.769531 3.453125 -2.5 C 3.328125 -2.226562 3.175781 -1.972656 3 -1.734375 C 2.820312 -1.503906 2.570312 -1.203125 2.25 -0.828125 Z M 3.765625 -0.828125 "/></g></g></g><g fill="#000000" fill-opacity="1"><g transform="translate(214.315251, 259.009117)"><g><path d="M 2.234375 -3.0625 C 2.566406 -3.019531 2.84375 -2.878906 3.0625 -2.640625 C 3.28125 -2.410156 3.390625 -2.066406 3.390625 -1.609375 C 3.390625 -1.273438 3.3125 -0.984375 3.15625 -0.734375 C 3 -0.484375 2.789062 -0.285156 2.53125 -0.140625 C 2.269531 -0.00390625 1.984375 0.0625 1.671875 0.0625 C 1.429688 0.0625 1.1875 0.015625 0.9375 -0.078125 C 0.695312 -0.179688 0.503906 -0.3125 0.359375 -0.46875 L 0.78125 -1.1875 C 0.875 -1.070312 1 -0.972656 1.15625 -0.890625 C 1.320312 -0.804688 1.488281 -0.765625 1.65625 -0.765625 C 1.894531 -0.765625 2.097656 -0.84375 2.265625 -1 C 2.429688 -1.164062 2.515625 -1.382812 2.515625 -1.65625 C 2.515625 -1.90625 2.4375 -2.101562 2.28125 -2.25 C 2.132812 -2.40625 1.9375 -2.484375 1.6875 -2.484375 C 1.5625 -2.484375 1.457031 -2.472656 1.375 -2.453125 C 1.289062 -2.441406 1.195312 -2.421875 1.09375 -2.390625 L 1.0625 -2.421875 L 2.03125 -4.015625 L 0.6875 -4.015625 L 0.6875 -4.84375 L 3.265625 -4.84375 Z M 2.234375 -3.0625 "/></g></g></g></svg>
